<svg xmlns="http://www.w3.org/2000/svg" viewBox="0 0 1440 320"><path fill="#323232" fill-opacity="1" d="M0,32L10.9,58.7C21.8,85,44,139,65,149.3C87.3,160,109,128,131,96C152.7,64,175,32,196,64C218.2,96,240,192,262,229.3C283.6,267,305,245,327,240C349.1,235,371,245,393,245.3C414.5,245,436,235,458,224C480,213,502,203,524,202.7C545.5,203,567,213,589,197.3C610.9,181,633,139,655,138.7C676.4,139,698,181,720,192C741.8,203,764,181,785,181.3C807.3,181,829,203,851,224C872.7,245,895,267,916,245.3C938.2,224,960,160,982,144C1003.6,128,1025,160,1047,181.3C1069.1,203,1091,213,1113,186.7C1134.5,160,1156,96,1178,90.7C1200,85,1222,139,1244,154.7C1265.5,171,1287,149,1309,122.7C1330.9,96,1353,64,1375,74.7C1396.4,85,1418,139,1429,165.3L1440,192L1440,0L1429.1,0C1418.2,0,1396,0,1375,0C1352.7,0,1331,0,1309,0C1287.3,0,1265,0,1244,0C1221.8,0,1200,0,1178,0C1156.4,0,1135,0,1113,0C1090.9,0,1069,0,1047,0C1025.5,0,1004,0,982,0C960,0,938,0,916,0C894.5,0,873,0,851,0C829.1,0,807,0,785,0C763.6,0,742,0,720,0C698.2,0,676,0,655,0C632.7,0,611,0,589,0C567.3,0,545,0,524,0C501.8,0,480,0,458,0C436.4,0,415,0,393,0C370.9,0,349,0,327,0C305.5,0,284,0,262,0C240,0,218,0,196,0C174.5,0,153,0,131,0C109.1,0,87,0,65,0C43.6,0,22,0,11,0L0,0Z"></path></svg>